<svg xmlns="http://www.w3.org/2000/svg" viewBox="0 0 1200 675" width="1200" height="675" role="img">
  <defs>
    <radialGradient id="a" cx="50%" cy="50%" r="50%">
      <stop offset="0%" stop-color="#FF3B4F" stop-opacity="0.55"/>
      <stop offset="100%" stop-color="#FF3B4F" stop-opacity="0"/>
    </radialGradient>
    <radialGradient id="i" cx="50%" cy="50%" r="50%">
      <stop offset="0%" stop-color="#7A6BFF" stop-opacity="0.5"/>
      <stop offset="100%" stop-color="#7A6BFF" stop-opacity="0"/>
    </radialGradient>
    <linearGradient id="s" x1="0" y1="0" x2="1" y2="1">
      <stop offset="0%" stop-color="#FF3B4F"/>
      <stop offset="100%" stop-color="#7A6BFF"/>
    </linearGradient>
    <pattern id="g" width="72" height="72" patternUnits="userSpaceOnUse">
      <path d="M72 0H0v72" fill="none" stroke="rgba(255,255,255,0.045)" stroke-width="1"/>
    </pattern>
  </defs>
  <rect width="1200" height="675" fill="#08090C"/>
  <rect width="1200" height="675" fill="url(#g)"/>
  <circle cx="255.26" cy="159.66" r="420" fill="url(#a)"/>
  <circle cx="1046.84" cy="595.17" r="380" fill="url(#i)"/>
  <rect x="150" y="120" width="266.6" height="46" rx="12" fill="rgba(255,255,255,0.07)" stroke="rgba(255,255,255,0.12)"/>
  <rect x="150" y="120" width="111.35" height="46" rx="12" fill="url(#s)" opacity="0.5"/>
  <rect x="150" y="208" width="406.66" height="46" rx="12" fill="rgba(255,255,255,0.07)" stroke="rgba(255,255,255,0.12)"/>
  <rect x="150" y="208" width="230.97" height="46" rx="12" fill="url(#s)" opacity="0.5"/>
  <rect x="150" y="296" width="500.11" height="46" rx="12" fill="rgba(255,255,255,0.07)" stroke="rgba(255,255,255,0.12)"/>
  <rect x="150" y="296" width="150.38" height="46" rx="12" fill="url(#s)" opacity="0.5"/>
  <rect x="150" y="384" width="687.22" height="46" rx="12" fill="rgba(255,255,255,0.07)" stroke="rgba(255,255,255,0.12)"/>
  <rect x="150" y="384" width="341.54" height="46" rx="12" fill="url(#s)" opacity="0.5"/>
  <rect x="150" y="472" width="787.51" height="46" rx="12" fill="rgba(255,255,255,0.07)" stroke="rgba(255,255,255,0.12)"/>
  <rect x="150" y="472" width="377.81" height="46" rx="12" fill="url(#s)" opacity="0.5"/>
  <rect x="0.5" y="0.5" width="1199" height="674" fill="none" stroke="rgba(255,255,255,0.09)"/>
</svg>
