<svg xmlns="http://www.w3.org/2000/svg" viewBox="0 0 1200 675" width="1200" height="675" role="img">
  <defs>
    <radialGradient id="a" cx="50%" cy="50%" r="50%">
      <stop offset="0%" stop-color="#FF3B4F" stop-opacity="0.55"/>
      <stop offset="100%" stop-color="#FF3B4F" stop-opacity="0"/>
    </radialGradient>
    <radialGradient id="i" cx="50%" cy="50%" r="50%">
      <stop offset="0%" stop-color="#7A6BFF" stop-opacity="0.5"/>
      <stop offset="100%" stop-color="#7A6BFF" stop-opacity="0"/>
    </radialGradient>
    <linearGradient id="s" x1="0" y1="0" x2="1" y2="1">
      <stop offset="0%" stop-color="#FF3B4F"/>
      <stop offset="100%" stop-color="#7A6BFF"/>
    </linearGradient>
    <pattern id="g" width="72" height="72" patternUnits="userSpaceOnUse">
      <path d="M72 0H0v72" fill="none" stroke="rgba(255,255,255,0.045)" stroke-width="1"/>
    </pattern>
  </defs>
  <rect width="1200" height="675" fill="#08090C"/>
  <rect width="1200" height="675" fill="url(#g)"/>
  <circle cx="168.35" cy="226.76" r="420" fill="url(#a)"/>
  <circle cx="1098.99" cy="561.62" r="380" fill="url(#i)"/>
  <path d="M140 565 H1060" stroke="rgba(255,255,255,0.14)" stroke-width="2"/>
  <path d="M140 90 V565" stroke="rgba(255,255,255,0.14)" stroke-width="2"/>
  <path d="M140 525 L176 513 L212 501 L248 489 L284 477 L320 465 L356 453 L392 441 L428 429 L464 417 L500 405 L536 393 L572 381 L608 369 L644 357 L680 345 L716 333 L752 321 L788 309 L824 297 L860 285 L896 273 L932 261 L968 249 L1004 237 L1040 225" fill="none" stroke="url(#s)" stroke-width="3.5" stroke-linecap="round"/>
  <circle cx="140" cy="478.08" r="8.13" fill="#2FE3A6"/>
  <circle cx="176" cy="473.69" r="4.08" fill="rgba(255,255,255,0.28)"/>
  <circle cx="212" cy="547.56" r="4.09" fill="rgba(255,255,255,0.28)"/>
  <circle cx="248" cy="467.79" r="4.41" fill="rgba(255,255,255,0.28)"/>
  <circle cx="284" cy="481.69" r="5.91" fill="rgba(255,255,255,0.28)"/>
  <circle cx="320" cy="451.99" r="4.18" fill="#2FE3A6"/>
  <circle cx="356" cy="511" r="5.56" fill="rgba(255,255,255,0.28)"/>
  <circle cx="392" cy="467.26" r="4.76" fill="rgba(255,255,255,0.28)"/>
  <circle cx="428" cy="460.53" r="4.82" fill="rgba(255,255,255,0.28)"/>
  <circle cx="464" cy="369.12" r="7.8" fill="rgba(255,255,255,0.28)"/>
  <circle cx="500" cy="363.12" r="7.18" fill="#2FE3A6"/>
  <circle cx="536" cy="389.14" r="6.4" fill="rgba(255,255,255,0.28)"/>
  <circle cx="572" cy="396.97" r="7.76" fill="rgba(255,255,255,0.28)"/>
  <circle cx="608" cy="411.81" r="5.95" fill="rgba(255,255,255,0.28)"/>
  <circle cx="644" cy="380.03" r="8.79" fill="rgba(255,255,255,0.28)"/>
  <circle cx="680" cy="314.22" r="5.54" fill="#2FE3A6"/>
  <circle cx="716" cy="368.12" r="4.42" fill="rgba(255,255,255,0.28)"/>
  <circle cx="752" cy="338.02" r="4.06" fill="rgba(255,255,255,0.28)"/>
  <circle cx="788" cy="250.73" r="3.65" fill="rgba(255,255,255,0.28)"/>
  <circle cx="824" cy="256.32" r="3.95" fill="rgba(255,255,255,0.28)"/>
  <circle cx="860" cy="309.12" r="7.57" fill="#2FE3A6"/>
  <circle cx="896" cy="263.09" r="6.53" fill="rgba(255,255,255,0.28)"/>
  <circle cx="932" cy="278.77" r="3.61" fill="rgba(255,255,255,0.28)"/>
  <circle cx="968" cy="231.36" r="8.59" fill="rgba(255,255,255,0.28)"/>
  <circle cx="1004" cy="237.5" r="3.59" fill="rgba(255,255,255,0.28)"/>
  <circle cx="1040" cy="167.18" r="6.12" fill="#2FE3A6"/>
  <rect x="0.5" y="0.5" width="1199" height="674" fill="none" stroke="rgba(255,255,255,0.09)"/>
</svg>
